<?xml version="1.0" encoding="utf-8"?>
<!-- Generator: Adobe Illustrator 25.3.1, SVG Export Plug-In . SVG Version: 6.00 Build 0)  -->
<svg version="1.1" id="图层_1" xmlns="http://www.w3.org/2000/svg" xmlns:xlink="http://www.w3.org/1999/xlink" x="0px" y="0px"
	 viewBox="0 0 83.9 76.3" style="enable-background:new 0 0 83.9 76.3;" xml:space="preserve">
<style type="text/css">
	.st0{opacity:0.5;}
</style>
<g id="图层_2_1_">
	<g id="图层_1-2">
		<path d="M42,57.4c-8.5,0-15.4-6.9-15.4-15.4S33.5,26.6,42,26.6S57.4,33.5,57.4,42c0,0,0,0,0,0.1C57.3,50.5,50.5,57.3,42,57.4z
			 M42,34.6c-4.1,0-7.4,3.3-7.4,7.4s3.3,7.4,7.4,7.4s7.4-3.3,7.4-7.4l0,0C49.4,37.9,46.1,34.6,42,34.6z"/>
		<g class="st0">
			<path d="M50.4,76.4H33.5c-12.6,0-19,0-24.2-3.4c-2.3-1.5-4.2-3.4-5.8-5.7C0,62,0,55.8,0,43.4s0-18.7,3.5-23.9
				C5,17.2,7,15.3,9.3,13.8c3.7-2.4,8-3.1,13.4-3.3h0.2c0.6,0,1.1-0.5,1.2-1.1c1.2-5.5,6-9.4,11.6-9.4h12.4c5.6,0,10.4,3.9,11.6,9.4
				c0.1,0.6,0.6,1,1.2,1.1h0.2c5.4,0.2,9.7,0.9,13.4,3.3c2.3,1.5,4.2,3.4,5.8,5.7C84,24.7,84,30.9,84,43.4s0,18.6-3.6,23.9
				c-1.5,2.3-3.5,4.2-5.8,5.7C69.4,76.4,63,76.4,50.4,76.4z M23,18.5c-4.8,0.2-7.4,0.8-9.3,2c-1.4,0.9-2.6,2.1-3.5,3.5
				C8,27.1,8,32.6,8,43.4s0,16.2,2.1,19.4c0.9,1.4,2.1,2.6,3.5,3.5c3.3,2.1,8.8,2.1,19.9,2.1h16.9c11,0,16.6,0,19.8-2.1
				c1.4-0.9,2.6-2.1,3.6-3.5C76,59.6,76,54.2,76,43.4s0-16.2-2.2-19.4c-0.9-1.4-2.1-2.6-3.5-3.5c-1.9-1.2-4.5-1.8-9.3-2
				c-4.4-0.1-8.1-3.2-8.9-7.5c-0.4-1.8-2-3-3.8-3H35.8C34,8,32.4,9.2,32,11C31.1,15.3,27.4,18.4,23,18.5z"/>
		</g>
		<path d="M68.6,34.6h-3.8c-2.2,0-4-1.8-4-4s1.8-4,4-4h3.8c2.2,0,4,1.8,4,4S70.8,34.6,68.6,34.6z"/>
	</g>
</g>
</svg>
